<?xml version="1.0" encoding="utf-8"?>
<!-- Generator: Adobe Illustrator 22.0.0, SVG Export Plug-In . SVG Version: 6.00 Build 0)  -->
<svg version="1.2" baseProfile="tiny" id="图层_1"
	 xmlns="http://www.w3.org/2000/svg" xmlns:xlink="http://www.w3.org/1999/xlink" x="0px" y="0px" viewBox="0 0 24 24"
	 xml:space="preserve">
<title>Piwigo</title>
<path fill="#0085DE" d="M16.7,12.8c0,2.6-2.1,4.7-4.7,4.7c-2.6,0-4.7-2.1-4.7-4.7c0-2.6,2.1-4.7,4.7-4.7
	C14.6,8.1,16.7,10.2,16.7,12.8z M19.1,0c-2.6,0.1-2.4,1.5-8.2,1.6H6.7c-3.3,0-5.9,2.7-5.9,5.9c0,0,0,0,0,0v10.5
	c0,3.3,2.7,5.9,5.9,5.9c0,0,0,0,0,0h10.5c3.3,0,5.9-2.7,5.9-5.9c0,0,0,0,0,0v-14l0,0c0,0,0,0,0,0C23.2,1.8,21.3,0,19.1,0L19.1,0z
	 M19.2,2.5c0.8,0,1.4,0.6,1.4,1.4c0,0.8-0.6,1.4-1.4,1.4c-0.8,0-1.4-0.6-1.4-1.4c0,0,0,0,0,0C17.8,3.2,18.4,2.5,19.2,2.5
	C19.2,2.5,19.2,2.5,19.2,2.5L19.2,2.5z M12,6.1c3.7,0,6.7,3,6.7,6.7c0,3.7-3,6.7-6.7,6.7c0,0,0,0,0,0c-3.7,0-6.7-3-6.7-6.7
	c0,0,0,0,0,0C5.3,9.1,8.3,6.1,12,6.1L12,6.1z"/>
</svg>
