<?xml version="1.0" encoding="utf-8"?>
<!-- Generator: Adobe Illustrator 22.0.0, SVG Export Plug-In . SVG Version: 6.00 Build 0)  -->
<svg version="1.1" id="图层_1" xmlns="http://www.w3.org/2000/svg" xmlns:xlink="http://www.w3.org/1999/xlink" x="0px" y="0px"
	 viewBox="0 0 24 24" enable-background="new 0 0 24 24" xml:space="preserve">
<title>pixiv</title>
<path fill="#FF7700" d="M4.9,0C2.2,0,0,2.2,0,4.9c0,0,0,0,0,0v14.1C0,21.8,2.2,24,4.9,24c0,0,0,0,0,0h14.1c2.7,0,4.9-2.2,4.9-4.9
	c0,0,0,0,0,0V4.9C24,2.2,21.8,0,19.1,0c0,0,0,0,0,0H4.9z M12.7,4.5c2.2,0,4.1,0.7,5.4,1.8c1.4,1.2,2.1,2.9,2.1,4.7
	c0,1.9-0.9,3.5-2.3,4.6c-1.4,1.1-3.2,1.7-5.3,1.7c-2.3,0-4.5-0.8-4.5-0.8v2.7c0.4,0.1,1,0.4,0.6,0.8H5.8c-0.4-0.4,0.2-0.6,0.6-0.8
	V7.7c-1.1,0.8-1.6,1.5-1.9,2c0.3,1-0.3,1-0.3,1L3.2,8.9C3.2,8.9,7.1,4.5,12.7,4.5L12.7,4.5z M12.6,5.5c-1.4,0-3.2,0.5-4.3,1.2v8.6
	c1,0.5,2.5,0.8,4.3,0.8h0c1.6,0,3-0.6,3.9-1.5c1-0.9,1.5-2.2,1.5-3.7c0-1.5-0.5-2.9-1.4-3.9C15.6,6.2,14.3,5.5,12.6,5.5z"/>
</svg>
