<?xml version="1.0" encoding="utf-8"?>
<!-- Generator: Adobe Illustrator 22.0.0, SVG Export Plug-In . SVG Version: 6.00 Build 0)  -->
<svg version="1.1" id="图层_1" xmlns="http://www.w3.org/2000/svg" xmlns:xlink="http://www.w3.org/1999/xlink" x="0px" y="0px"
	 viewBox="0 0 24 24" style="enable-background:new 0 0 24 24;" xml:space="preserve">
<style type="text/css">
	.st0{fill:#23E576;}
</style>
<title>Talenthouse</title>
<path class="st0" d="M22.4,7.4V0H1.6v7.4h6.7V24h7.4V7.4H22.4L22.4,7.4z M12.3,0h-0.6H12.3z M12.3,3.4V0.6h8.9l-3.5,2.8H12.3z
	 M6.4,3.4L2.8,0.6h8.9v2.8C11.7,3.4,6.4,3.4,6.4,3.4z M5.8,3.7L2.2,6.5V0.9L5.8,3.7z M2.8,6.8L6.4,4h4.9L8.5,6.8L2.8,6.8L2.8,6.8z
	 M8.9,7.2l2.8-2.8v14.8l-1.6,2l-1.2,1.5L8.9,7.2z M9.2,23.4l0.6-0.7l2.2-2.8l2.8,3.5L9.2,23.4z M12.3,4.5l2.8,2.8v15.6l-2.8-3.6V4.5
	z M15.6,6.8L12.8,4h4.9l3.5,2.8H15.6z M21.8,6.5l-3.5-2.8L21.7,1l0,0L21.8,6.5z"/>
</svg>
